<svg width="78" height="59" viewBox="0 0 78 59" fill="none" xmlns="http://www.w3.org/2000/svg">
<path d="M17.8074 28.9344C20.5319 29.9746 23.1756 30.0089 25.8022 28.9599C27.86 28.1381 29.3849 26.7826 30.3459 24.6886C31.8969 21.3091 33.0002 17.7526 34.5236 14.3663C35.1513 12.971 35.8487 11.6182 36.7604 10.3848C39.8275 6.23537 45.9787 6.67515 48.4764 11.2234C49.2581 12.6468 49.6654 14.2022 50.075 15.7584C50.1639 16.0962 50.1084 16.5101 50.603 16.7742C51.2563 15.3355 51.8623 13.9097 52.5438 12.5216C53.5879 10.3946 54.8368 8.41126 56.813 7.01549C60.4635 4.4371 65.5049 5.17062 68.2878 8.69122C69.655 10.4208 70.6444 12.3583 71.3396 14.4552C72.8817 19.106 73.5932 23.9099 73.9892 28.7768C74.0593 29.6379 73.7887 30.2457 73.1412 30.8217C71.2369 32.516 69.3904 34.2763 67.5148 36.0037C67.1905 36.3025 66.8992 36.6719 66.4122 36.7315C65.9035 36.2473 66.0537 35.6341 66.0413 35.0818C65.926 29.9571 65.577 24.8565 64.4708 19.8383C64.1055 18.181 63.5814 16.5676 62.5967 15.1577C61.6241 13.765 61.0192 13.778 60.2055 15.2313C58.4206 18.4197 57.4945 21.9515 56.2688 25.3629C55.6542 27.0734 55.0494 28.7884 53.9404 30.2559C52.5686 32.0711 50.6371 32.2133 48.6152 31.9984C46.6387 31.7883 45.2712 30.7663 44.6271 28.8266C43.7922 26.3129 43.5855 23.653 42.8503 21.117C42.6145 20.3036 42.485 19.4375 41.724 18.5996C40.9668 20.6369 40.2781 22.5213 39.5668 24.3969C38.4658 27.2999 37.2706 30.1647 35.1204 32.4677C31.1403 36.7305 26.1863 38.3895 20.4598 37.9242C13.6289 37.3691 8.55537 34.0062 5.2648 28.0156C-0.90155 16.7895 6.16188 2.29739 18.7401 0.281777C24.1785 -0.589702 29.1585 0.537659 33.5526 3.97983C34.7146 4.89011 34.7131 5.00737 33.6595 6.0267C32.2109 7.4282 30.753 8.82048 29.3315 10.2496C28.8211 10.7627 28.437 10.7497 27.8605 10.3228C21.9083 5.91524 13.4062 9.10116 11.7049 16.3572C10.4338 21.7784 12.8173 26.7462 17.8074 28.9344Z" fill="url(#paint0_linear_169_12457)"/>
<path d="M69.3351 39.6428C72.4262 37.2485 75.3345 34.7783 78 32C77.8479 33.3772 77.0522 34.3861 76.4218 35.46C72.1588 42.7212 66.644 48.8144 59.394 53.1953C45.3233 61.6979 28.6302 60.7897 15.4391 50.931C9.01272 46.1282 4.09861 40.0784 0.356683 33.0322C0.194565 32.7269 -0.130933 32.4454 0.0564836 32.0159C0.481531 31.9357 0.618466 32.2898 0.829092 32.5123C7.59572 39.6608 15.3867 45.2945 24.8107 48.413C36.3467 52.2305 47.6322 51.4411 58.6299 46.3081C62.4407 44.5295 65.9588 42.2838 69.3351 39.6428Z" fill="#8FFDC6"/>
<defs>
<linearGradient id="paint0_linear_169_12457" x1="-2.11157" y1="13.5864" x2="79.7246" y2="31.797" gradientUnits="userSpaceOnUse">
<stop stop-color="#080321"/>
<stop offset="1" stop-color="#01353A"/>
</linearGradient>
</defs>
</svg>
